<svg width="160" height="46" viewBox="0 0 160 46" xmlns="http://www.w3.org/2000/svg"><defs><linearGradient x1="16.05%" y1="60.732%" x2="111.547%" y2="19.487%" id="a"><stop stop-color="#FFA28B" offset="0%"/><stop stop-color="#FFC473" offset="100%"/></linearGradient><linearGradient x1="1.653%" y1="67.449%" x2="100.357%" y2="21.946%" id="b"><stop stop-color="#7D17FF" offset="0%"/><stop stop-color="#FF2E64" offset="100%"/></linearGradient><linearGradient x1="-4.177%" y1="-24.444%" x2="74.976%" y2="117.202%" id="c"><stop stop-color="#0053B9" offset="0%"/><stop stop-color="#2EFFBC" offset="100%"/></linearGradient><linearGradient x1="-2.345%" y1="-3.272%" x2="93.289%" y2="89.154%" id="d"><stop stop-color="#00D4AB" offset="0%"/><stop stop-color="#C8FFA2" offset="100%"/></linearGradient></defs><g fill="none" fill-rule="evenodd"><path d="M154.824 0H5.174C2.318 0 0 2.314 0 5.168v35.664C0 43.685 2.317 46 5.175 46h149.65c2.858 0 5.175-2.315 5.175-5.168V5.168C160 2.314 157.684 0 154.824 0z" fill="#000"/><path d="M19.048 18.134l5.063-2.82c1.41-.784 1.41-2.067.002-2.855l-5.114-2.855-4.23 4.355 4.28 4.174z" fill="url(#a)" transform="translate(15 13)"/><path d="M14.77 13.96S4.583 24.33 1.516 27.4c.248.05.527.032.825-.053l3.717-1.982 12.905-7.186.082-.046-4.278-4.174z" fill="url(#b)" transform="translate(15 13)"/><path d="M1.378.396c-.61.2-1.013.82-1.013 1.772v23.41c0 1.013.472 1.666 1.152 1.82L14.77 13.96 1.377.396z" fill="url(#c)" transform="translate(15 13)"/><path d="M2.928.64C2.39.34 1.894.26 1.48.356c-.037.01-.067.03-.102.04l13.39 13.565L19 9.605 2.928.64z" fill="url(#d)" transform="translate(15 13)"/><path d="M92.945 31.308c.462-.47.5-1.126.5-1.494 0-1.474-.862-3.766-2.527-3.766-.522 0-1.083.268-1.405.677-.34.428-.442.98-.442 1.513 0 1.37.785 3.643 2.51 3.643.503.002 1.043-.244 1.365-.572zm31.575-9.93l1.052.015c-.03 4.53-.042 9.06-.02 13.59-.343.004-.686.008-1.03.01-.007-4.538-.004-9.075-.002-13.614zm-7.06 3.73c1.51-.528 3.31-.09 4.377 1.13.908 1.034 1.253 2.462 1.237 3.824.01 1.43-.375 2.954-1.404 3.984-1.096 1.152-2.885 1.482-4.342.928-.802-.298-1.47-.883-1.987-1.563.03 1.783.02 3.564.007 5.346-.35-.007-.697-.015-1.044-.02.02-4.536-.01-9.07.013-13.604l1.034.016c.01.504.01 1.006-.006 1.51.553-.698 1.268-1.28 2.117-1.55zm.354.835c-.984.286-1.86.975-2.41 1.85-.118 1.184-.01 2.392-.053 3.586.026.37-.087.81.174 1.12.51.693 1.2 1.257 1.987 1.584 1.125.462 2.493.15 3.326-.74.868-.905 1.15-2.23 1.123-3.457-.03-1.194-.378-2.474-1.302-3.272-.75-.706-1.87-.93-2.844-.672zm12.115-.87c1.31-.322 2.793-.272 3.966.462.805.49 1.29 1.43 1.29 2.377.02 1.766-.008 3.532.01 5.298.002.59.122 1.173.253 1.747-.4.003-.796.003-1.194-.002-.098-.53-.177-1.066-.21-1.603-.803 1.006-1.998 1.736-3.29 1.786-.96.05-2.03-.078-2.757-.785-.72-.68-.94-1.78-.723-2.73.265-.966 1.132-1.6 2.016-1.924 1.526-.58 3.177-.3 4.765-.38-.025-.894.17-1.932-.47-2.662-.745-.86-1.995-.943-3.036-.776-.938.134-1.822.843-1.914 1.85-.35 0-.7.003-1.05.008-.073-1.375 1.16-2.34 2.34-2.667zm-1.282 6.305c-.528.695-.368 1.79.308 2.328.7.596 1.684.523 2.53.4 1.076-.257 2.18-.942 2.556-2.058.05-.632 0-1.266.013-1.9-.943.003-1.885-.022-2.825.01-.966.045-1.978.417-2.582 1.22zm7.68-6.254c.382.01.763.016 1.145.022 1.158 2.87 2.36 5.723 3.517 8.592 1.24-2.84 2.332-5.746 3.54-8.602.383.005.767.006 1.153.008-1.585 3.863-3.23 7.7-4.823 11.56-.298.737-.647 1.527-1.357 1.942-.702.453-1.572.344-2.353.236.06-.327.12-.65.182-.975.634.192 1.45.268 1.904-.336.547-.752.81-1.673 1.2-2.514-1.384-3.306-2.773-6.608-4.11-9.932zM92.362 35.196c-.16-.02-.26-.02-.46-.02-.182 0-1.266.042-2.11.33-.44.162-1.724.65-1.724 2.106 0 1.454 1.383 2.496 3.532 2.496 1.925 0 2.948-.94 2.948-2.21 0-1.045-.66-1.597-2.187-2.702zm1.426-9.086c.46.39 1.422 1.207 1.422 2.762 0 1.514-.843 2.232-1.686 2.907-.26.264-.56.552-.56 1.002 0 .45.3.695.52.88l.724.57c.882.76 1.684 1.456 1.684 2.868 0 1.923-1.825 3.867-5.277 3.867-2.91 0-4.314-1.412-4.314-2.925 0-.738.36-1.782 1.545-2.497 1.243-.78 2.93-.88 3.832-.943-.28-.37-.602-.757-.602-1.39 0-.348.1-.553.2-.8-.22.022-.44.042-.64.042-2.128 0-3.332-1.617-3.332-3.213 0-.94.422-1.985 1.284-2.74 1.144-.962 2.508-1.125 3.593-1.125h4.133l-1.286.736h-1.24zm-10.13 7.105c.48-.656.602-1.47.602-2.268 0-1.8-.843-5.232-3.326-5.232-.662 0-1.323.266-1.804.696-.782.715-.922 1.614-.922 2.493 0 2.023.98 5.354 3.406 5.354.78 0 1.583-.39 2.043-1.042zm-2.504 1.655c-3.186 0-4.888-2.535-4.888-4.824 0-2.676 2.143-4.964 5.19-4.964 2.943 0 4.787 2.35 4.787 4.823 0 2.41-1.823 4.965-5.09 4.965zM72.8 33.215c.482-.656.602-1.47.602-2.268 0-1.8-.84-5.232-3.325-5.232-.66 0-1.324.266-1.805.696-.782.715-.92 1.614-.92 2.493 0 2.023.98 5.354 3.406 5.354.78 0 1.583-.39 2.042-1.042zm-2.503 1.655c-3.187 0-4.89-2.535-4.89-4.824 0-2.676 2.145-4.964 5.19-4.964 2.946 0 4.788 2.35 4.788 4.823 0 2.41-1.822 4.965-5.088 4.965zm-6.42-.32l-2.88.678c-1.17.184-2.216.348-3.324.348-5.56 0-7.673-4.168-7.673-7.437 0-3.984 3-7.682 8.137-7.682 1.09 0 2.135.164 3.08.43 1.513.432 2.217.966 2.66 1.275l-1.673 1.622-.704.165.504-.823c-.685-.677-1.934-1.93-4.31-1.93-3.184 0-5.58 2.466-5.58 6.06 0 3.86 2.738 7.497 7.13 7.497 1.29 0 1.953-.266 2.56-.513v-3.306l-3.042.163 1.61-.883h4.27l-.523.513c-.143.123-.16.166-.203.33-.02.185-.04.78-.04.985v2.508zm36.278-.594c-.665-.06-.805-.184-.805-.985V21.345l.01-.132c.08-.72.282-.84.906-1.212h-2.88l-1.51.74h1.54v.01l-.002-.007v12.68c0 .41-.08.472-.544 1.087h3.566l.745-.45c-.34-.042-.683-.062-1.025-.104zm6.316-5.89c.38-.143.58-.264.58-.55 0-.815-.9-1.756-1.98-1.756-.8 0-2.3.634-2.3 2.837 0 .347.04.714.06 1.08l3.64-1.612zm1.88 6.08c-.218.123-.438.266-.658.368-.66.305-1.342.386-1.94.386-.64 0-1.64-.04-2.66-.795-1.42-1.02-2.04-2.774-2.04-4.304 0-3.16 2.52-4.712 4.58-4.712.72 0 1.46.185 2.06.572 1 .672 1.26 1.55 1.4 2.02l-4.7 1.938-1.542.12c.5 2.593 2.22 4.1 4.122 4.1 1.02 0 1.76-.365 2.44-.712l-1.06 1.02z" fill="#FFF"/><g fill="#FFF"><path d="M50.972 7.732c.452-.3 1.023-.51 1.75-.51 1.152 0 1.948.61 1.948 1.654 0 .832-.6 1.474-1.367 1.655v.022c.924.1 1.613.72 1.623 1.695 0 1.404-1.2 1.966-2.41 1.966-.6 0-1.22-.13-1.73-.44l.225-.683c.366.21.946.41 1.496.41.974 0 1.515-.54 1.515-1.283 0-1.014-.953-1.304-1.8-1.304h-.392v-.663h.383c.877 0 1.565-.55 1.565-1.243 0-.692-.482-1.073-1.19-1.073-.512 0-1.023.21-1.387.44l-.226-.642zM57.383 11.976l-.69 2.126h-.884l2.26-6.76h1.024l2.263 6.76h-.915l-.708-2.126h-2.35zm2.183-.682l-.66-1.946c-.147-.44-.245-.842-.343-1.233h-.02c-.1.39-.197.812-.334 1.223l-.65 1.956h2.006zM66.095 7.34v.733H63.43V14.1h-.867V7.34h3.532zM67.077 7.422c.413-.07.953-.13 1.642-.13.845 0 1.464.2 1.858.562.354.32.58.812.58 1.414 0 .612-.177 1.094-.512 1.445-.462.49-1.19.742-2.026.742-.256 0-.492-.01-.69-.06v2.708h-.854v-6.68zm.855 3.26c.187.05.423.07.708.07 1.033 0 1.663-.522 1.663-1.435 0-.903-.63-1.334-1.564-1.334-.375 0-.66.03-.807.07v2.63zM72.68 7.34l1.318 2.9c.167.4.325.792.472 1.184h.03c.117-.34.245-.732.403-1.214l1.043-2.868h.905l-1.395 3.49c-.354.903-.768 1.937-1.24 2.558-.423.552-.905.833-1.495.833-.226 0-.374-.02-.482-.06l.08-.712c.077.02.176.03.323.03.68 0 1.083-.672 1.3-1.153.068-.15.05-.25-.03-.412L71.707 7.34h.973zM77.655 7.732c.452-.3 1.022-.51 1.75-.51 1.152 0 1.947.61 1.947 1.654 0 .832-.6 1.474-1.367 1.655v.022c.925.1 1.613.72 1.624 1.695 0 1.404-1.2 1.966-2.41 1.966-.6 0-1.22-.13-1.732-.44l.226-.683c.364.21.944.41 1.495.41.973 0 1.513-.54 1.513-1.283 0-1.014-.953-1.304-1.8-1.304h-.393v-.663h.384c.876 0 1.563-.55 1.563-1.243 0-.692-.48-1.073-1.19-1.073-.51 0-1.023.21-1.386.44l-.225-.642zM83.8 7.34v2.85c0 1.063-.02 1.956-.078 2.858l.03.01c.324-.703.737-1.434 1.218-2.237l2.145-3.48h.855v6.76h-.806v-2.877c0-1.094.01-1.896.08-2.748l-.03-.01c-.325.74-.778 1.524-1.23 2.267l-2.075 3.37h-.916V7.34h.806zM90.967 8.084H88.95V7.34h4.908v.744h-2.026V14.1h-.865V8.085zM98.263 10.933h-2.566v2.437h2.872v.732h-3.74v-6.76h3.59v.732h-2.723v2.136h2.566v.723zM103.56 7.34v2.83h3.207V7.34h.865v6.76h-.865v-3.168h-3.206v3.17h-.865V7.34h.866zM110.433 11.976l-.69 2.126h-.884l2.262-6.76h1.022l2.263 6.76h-.915l-.708-2.126h-2.35zm2.184-.682l-.66-1.946c-.147-.44-.246-.842-.344-1.233h-.02c-.098.39-.196.812-.334 1.223l-.65 1.956h2.007z"/></g></g></svg>
