<?xml version="1.0" encoding="UTF-8"?>
<!DOCTYPE svg PUBLIC "-//W3C//DTD SVG 1.1//EN" "http://www.w3.org/Graphics/SVG/1.1/DTD/svg11.dtd">
<!-- Creator: MegaZet -->
<svg xmlns="http://www.w3.org/2000/svg" xml:space="preserve" width="2048px" height="2048px" version="1.1" style="shape-rendering:geometricPrecision; text-rendering:geometricPrecision; image-rendering:optimizeQuality; fill-rule:evenodd; clip-rule:evenodd"
viewBox="0 0 2048 2048"
 xmlns:xlink="http://www.w3.org/1999/xlink">
 <defs>
  <style type="text/css">
   <![CDATA[
    .fil0 {fill:#009900}
    .fil3 {fill:#131313}
    .fil2 {fill:white}
    .fil4 {fill:#009900;fill-rule:nonzero}
    .fil1 {fill:white;fill-opacity:0.400000}
   ]]>
  </style>
 </defs>
 <g id="logo">
  <g>
   <polygon class="fil0" points="1024,2048 137,1536 137,512 1024,0 1911,512 1911,1536 "/>
   <polygon class="fil1" points="1024,97 451,428 451,428 1127,965 1198,1850 1826,1487 1826,561 "/>
   <path class="fil2" d="M1547 722l-1046 0 523 906 523 -906zm-477 640l0 -311 270 -156 -270 467zm223 -547l-269 155 -269 -155 538 0zm-585 80l270 156 0 311 -270 -467z"/>
   <path class="fil2" d="M1024 194l-719 415 0 830 719 415 719 -415 0 -830 -719 -415zm383 997l-47 81 244 140 -580 335 -580 -335 244 -140 -47 -81 -243 141 0 -670 580 -334 0 281 92 0 0 -281 580 334 0 670 -243 -141z"/>
  </g>
  <path class="fil3" d="M1024 520c-4,0 -7,-4 -7,-8 0,-4 3,-7 7,-7 5,0 8,3 8,7 0,4 -3,8 -8,8zm-46 220l5 -2c0,-4 -1,-7 -3,-9 -1,-1 -3,-1 -4,-2 -2,0 -3,1 -5,1 -1,1 -3,2 -4,3 -1,1 -3,3 -4,5 -1,3 -3,7 -3,11l5 -2 -4 11 0 12c0,6 0,13 0,20 0,7 0,13 0,20l0 19c7,-2 15,-3 22,-4l0 -17c0,-7 0,-15 0,-22 0,-7 0,-15 0,-23l0 -12 -5 -9zm87 -2l6 2 -6 9 0 12c0,8 0,16 0,23 0,7 0,15 0,22l0 17c8,1 16,2 22,4l1 -19c0,-7 0,-13 0,-20 0,-7 0,-14 0,-20l0 -12 -4 -11 4 2c0,-4 -1,-8 -3,-11 -1,-2 -2,-4 -3,-5 -1,-1 -3,-2 -4,-3 -2,0 -4,-1 -5,-1 -2,1 -3,1 -4,2 -2,2 -4,5 -4,9zm-33 -7l6 0c0,-8 -6,-14 -14,-14 -7,0 -13,6 -13,14l6 0 -6 10 0 80c4,0 9,0 13,0 5,0 9,0 14,0l0 -80 -6 -10zm-8 -211l23 92 0 0c32,7 57,28 64,55 3,3 4,6 4,10 0,3 -1,5 -3,8l0 32c2,3 3,5 3,8 0,3 -1,6 -3,8l0 100 0 0c21,8 35,18 35,29 0,4 -2,8 -5,11l0 34 -1 0 121 28 13 13 -15 9 0 243c217,47 434,159 651,336l-887 512 -887 -512c218,-177 435,-289 652,-336l0 -243 -15 -9 12 -13 122 -28 -1 0 0 -34c-3,-3 -5,-7 -5,-11 0,-11 13,-21 35,-29l0 0 0 -100c-2,-2 -4,-5 -4,-8 0,-3 2,-5 4,-8l0 -32c-2,-3 -4,-5 -4,-8 0,-4 2,-7 5,-10 6,-27 31,-48 64,-55l-1 0 23 -92z"/>
  <g>
   <path class="fil0" d="M1108 1277c-30,-9 -62,-19 -95,-24l-1 -1 0 -227 144 118 -24 69 -15 -10 8 -42 -71 -53 0 123c17,6 38,16 61,30l1 0 -7 18 -1 -1z"/>
   <path class="fil0" d="M1258 1356c-29,-22 -91,-63 -91,-63l-2 -1 55 -88 129 107 -2 2c-1,0 -43,24 -87,43l-1 0 -1 0zm-56 -74c8,5 43,32 60,45 22,-10 41,-20 48,-23l-78 -64 -30 42z"/>
   <path class="fil0" d="M1162 1497l2 0c26,-13 39,-22 58,-38l0 -1 89 36 -85 146 -64 -143zm76 85l41 -70 -43 -20c-8,10 -18,18 -30,25l32 65z"/>
   <path class="fil0" d="M1024 1536l2 0c34,-3 60,-8 86,-17l2 -1 11 40 -1 1c-22,13 -48,15 -54,16l0 329 82 -131 -28 -129 21 -11 40 152 -161 263 0 -512z"/>
   <path class="fil0" d="M817 1432c-30,-7 -65,-31 -65,-31l-4 -3 5 0c0,0 26,-1 33,-2 11,-5 20,-11 31,-16 10,-6 21,-13 37,-21 6,-3 12,-7 18,-10 34,-18 67,-36 126,-36 4,0 8,0 13,0 72,3 97,16 132,34 3,2 6,3 10,5 25,13 52,28 76,43 1,0 4,0 8,0 7,0 15,0 16,0l3 0 -2 3c-1,0 -12,15 -36,25l-1 1 -1 -1c-10,-3 -19,-7 -31,-13 -13,-6 -30,-14 -55,-24 -47,-20 -88,-23 -121,-23 -3,0 -5,0 -8,0 -27,0 -67,2 -108,23 -20,10 -34,20 -47,29 -10,6 -19,12 -28,17l-1 0 0 0z"/>
   <path class="fil0" d="M1017 1482c-81,-1 -137,-37 -137,-38l-2 -1 1 -1c1,0 28,-20 51,-33l1 -1 1 1c0,1 34,36 78,36 1,0 2,0 3,0 47,-2 80,-37 80,-37l1 -1 63 28 -2 2c-1,0 -60,45 -137,45l-1 0z"/>
  </g>
  <polygon class="fil4" points="378,1573 368,1573 332,1513 332,1573 322,1573 322,1498 333,1498 369,1558 369,1498 378,1498 "/>
  <polygon id="1" class="fil4" points="406,1573 395,1573 395,1498 406,1498 "/>
  <polygon id="2" class="fil4" points="465,1573 420,1573 419,1564 448,1516 455,1505 422,1505 422,1498 464,1498 465,1507 436,1555 430,1566 465,1566 "/>
  <polygon id="3" class="fil4" points="533,1573 523,1573 523,1538 489,1538 489,1573 479,1573 479,1498 489,1498 489,1530 523,1530 523,1498 533,1498 "/>
  <polygon id="4" class="fil4" points="606,1573 595,1573 559,1513 559,1573 550,1573 550,1498 560,1498 597,1558 597,1498 606,1498 "/>
  <polygon id="5" class="fil4" points="669,1498 646,1547 646,1573 636,1573 636,1547 614,1498 625,1498 642,1536 658,1498 "/>
  <polygon id="6" class="fil4" points="739,1505 719,1505 719,1573 709,1573 709,1505 690,1505 690,1498 739,1498 "/>
  <path id="7" class="fil4" d="M799 1573l-11 0 -5 -19 -28 0 -6 19 -10 0 23 -75 14 0 23 75zm-19 -26l-6 -23 -5 -19c-2,7 -4,13 -5,18l-7 24 23 0z"/>
  <path id="8" class="fil4" d="M863 1535l0 33c-5,4 -15,6 -29,6 -3,0 -6,0 -8,0 -2,0 -4,0 -6,-1 -2,0 -3,-1 -5,-2 -1,-1 -2,-2 -3,-2 -1,-1 -2,-3 -2,-4 -1,-2 -2,-4 -2,-5 0,-2 -1,-4 -1,-7 0,-3 0,-5 0,-8 0,-2 0,-6 0,-10 0,-3 0,-6 0,-8 0,-3 0,-5 0,-7 0,-3 1,-5 1,-7 0,-1 1,-3 1,-5 1,-1 1,-3 2,-4 1,-1 2,-2 3,-3 1,-1 2,-1 4,-2 1,-1 3,-1 5,-2 1,0 3,0 6,0 2,-1 4,-1 7,-1 0,0 0,0 1,0 2,0 4,0 5,0 1,0 3,1 5,1 2,0 4,0 5,1 1,0 2,1 4,2 1,1 2,2 3,3 1,1 1,3 2,5 0,2 1,4 1,7 0,1 0,1 0,3l-10 1 0 -10c0,-2 -1,-3 -4,-4 -2,-1 -7,-1 -14,-1 -4,0 -8,0 -10,1 -2,1 -4,1 -5,3 -1,1 -1,2 -1,5 -1,7 -1,14 -1,21 0,7 0,14 1,21 0,4 0,6 0,7 1,2 3,3 5,4 2,0 6,1 11,1 12,0 18,-1 19,-3 0,-3 0,-10 0,-21l-12 0 -1 -8 23 0z"/>
  <polygon id="9" class="fil4" points="889,1573 878,1573 878,1498 889,1498 "/>
  <polygon id="10" class="fil4" points="944,1573 906,1573 906,1498 916,1498 916,1565 945,1565 "/>
  <polygon class="fil4" points="1390,1561 1362,1561 1362,1511 1390,1511 1391,1516 1368,1516 1368,1532 1387,1532 1387,1538 1368,1538 1368,1556 1391,1556 "/>
  <polygon id="1" class="fil4" points="1437,1561 1429,1561 1405,1521 1405,1561 1399,1561 1399,1511 1406,1511 1431,1551 1431,1511 1437,1511 "/>
  <polygon id="2" class="fil4" points="1473,1561 1448,1561 1448,1511 1455,1511 1455,1556 1474,1556 "/>
  <polygon id="3" class="fil4" points="1489,1561 1482,1561 1482,1511 1489,1511 "/>
  <path id="4" class="fil4" d="M1536 1536l0 22c-3,3 -9,4 -19,4 -2,0 -4,0 -5,0 -2,0 -3,-1 -4,-1 -1,0 -2,0 -3,-1 -1,-1 -2,-1 -2,-2 -1,0 -2,-1 -2,-3 0,-1 -1,-2 -1,-3 0,-1 0,-2 -1,-4 0,-2 0,-4 0,-6 0,-1 0,-3 0,-6 0,-2 0,-4 0,-6 0,-1 0,-3 0,-5 0,-1 1,-3 1,-4 0,-1 0,-2 1,-3 0,-1 1,-2 1,-3 1,0 1,-1 2,-2 1,0 1,-1 2,-1 1,-1 2,-1 4,-1 1,-1 2,-1 4,-1 1,0 3,0 5,0 0,0 0,0 0,0 2,0 3,0 4,0 0,0 2,0 3,0 1,0 2,1 3,1 1,0 2,1 3,1 1,1 1,2 2,2 0,1 1,2 1,4 0,1 1,3 1,4 0,1 0,1 0,2l-6 1 -1 -6c0,-2 -1,-3 -2,-3 -2,-1 -5,-1 -9,-1 -3,0 -6,0 -7,1 -2,0 -3,1 -4,1 0,1 -1,2 -1,4 0,4 0,9 0,14 0,5 0,10 0,14 0,3 1,4 1,5 0,1 1,2 3,2 1,1 4,1 7,1 8,0 12,-1 13,-2 0,-2 0,-7 0,-14l-8 0 -1 -5 15 0z"/>
  <polygon id="5" class="fil4" points="1583,1561 1576,1561 1576,1538 1553,1538 1553,1561 1547,1561 1547,1511 1553,1511 1553,1533 1576,1533 1576,1511 1583,1511 "/>
  <polygon id="6" class="fil4" points="1622,1516 1608,1516 1608,1561 1602,1561 1602,1516 1589,1516 1589,1511 1622,1511 "/>
  <polygon id="7" class="fil4" points="1656,1561 1627,1561 1627,1511 1656,1511 1656,1516 1634,1516 1634,1532 1653,1532 1653,1538 1634,1538 1634,1556 1657,1556 "/>
  <polygon id="8" class="fil4" points="1702,1561 1695,1561 1671,1521 1671,1561 1665,1561 1665,1511 1672,1511 1696,1551 1696,1511 1702,1511 "/>
  <polygon id="9" class="fil4" points="1742,1561 1714,1561 1714,1511 1742,1511 1743,1516 1720,1516 1720,1532 1739,1532 1739,1538 1720,1538 1720,1556 1743,1556 "/>
  <path id="10" class="fil4" d="M1789 1532c0,3 0,5 0,7 0,2 0,4 0,6 -1,2 -1,4 -1,5 0,2 -1,3 -1,4 -1,1 -1,2 -2,3 0,0 -1,1 -2,2 -1,0 -2,1 -3,1 -1,0 -3,1 -5,1 -1,0 -3,0 -5,0 -2,0 -4,0 -6,0l-13 0 0 -50 18 0c3,0 5,0 7,0 2,0 4,1 5,1 2,1 3,2 4,3 1,1 2,2 2,4 1,1 1,3 2,5 0,2 0,5 0,8zm-7 0c0,-2 0,-4 0,-5 0,-1 0,-2 0,-3 0,-2 -1,-3 -1,-3 0,-1 0,-1 -1,-2 -1,-1 -1,-1 -2,-2 -1,0 -2,0 -3,0 -1,-1 -3,-1 -4,-1 -2,0 -3,0 -6,0l-7 0 0 40 8 0c2,0 4,0 5,0 1,0 2,0 3,0 2,0 3,-1 3,-1 1,0 2,-1 2,-1 1,-1 1,-1 2,-2 0,-1 0,-2 0,-3 1,-1 1,-2 1,-4 0,-1 0,-3 0,-5l0 -8z"/>
  <polygon class="fil4" points="483,1663 476,1663 452,1623 452,1663 446,1663 446,1612 453,1612 477,1653 477,1612 483,1612 "/>
  <path id="1" class="fil4" d="M529 1626c0,4 0,8 -2,10 -2,2 -4,3 -7,4 5,0 7,3 8,8l3 15 -8 0c0,-1 0,-3 0,-5 -1,-2 -1,-3 -1,-5 0,-1 -1,-3 -1,-4 0,-2 -1,-3 -1,-4 -1,-1 -1,-2 -2,-2 -1,-1 -3,-1 -6,-1l-11 0 0 21 -7 0 0 -51 16 0c2,0 3,0 4,0 1,0 2,0 4,1 1,0 2,0 3,0 1,0 2,0 2,1 1,0 2,1 3,1 0,1 1,1 1,2 1,1 1,1 2,2 0,1 0,2 0,3 0,1 0,3 0,4zm-6 3l0 -5c0,-1 0,-1 0,-2 0,0 0,-1 -1,-1 0,-1 0,-1 0,-2 -1,0 -1,0 -1,-1 -1,0 -1,0 -2,0 -1,0 -2,0 -3,0 -1,-1 -2,-1 -3,-1l-12 0 0 20 12 0c2,0 3,-1 4,-1 2,0 3,0 3,-1 1,0 1,0 2,-1 0,-1 0,-1 1,-2 0,-1 0,-2 0,-3z"/>
  <path id="2" class="fil4" d="M689 1633c0,3 0,6 0,8 0,2 0,4 -1,6 0,2 0,4 0,5 0,1 -1,2 -1,4 -1,1 -1,2 -2,2 0,1 -1,2 -2,2 -1,1 -2,1 -4,2 -1,0 -2,0 -4,0 -1,1 -3,1 -5,1 -2,0 -4,0 -6,0l-13 0 0 -51 18 0c3,0 5,0 7,1 2,0 4,0 5,1 2,1 3,1 4,2 1,1 2,3 2,4 1,2 1,4 1,6 1,2 1,4 1,7zm-7 0c0,-2 0,-3 0,-4 0,-1 0,-2 0,-4 0,-1 -1,-2 -1,-3 0,0 -1,-1 -1,-2 -1,0 -1,-1 -2,-1 -1,0 -2,-1 -3,-1 -1,0 -3,0 -4,0 -2,0 -4,-1 -6,-1l-7 0 0 41 8 0c2,0 4,0 5,0 1,-1 2,-1 3,-1 2,0 3,0 3,0 1,-1 1,-1 2,-2 1,0 1,-1 2,-2 0,0 0,-1 0,-2 1,-1 1,-3 1,-4 0,-2 0,-3 0,-5l0 -9z"/>
  <polygon id="3" class="fil4" points="727,1663 699,1663 699,1612 727,1612 728,1617 706,1617 706,1634 725,1634 725,1639 706,1639 706,1658 728,1658 "/>
  <polygon id="4" class="fil4" points="762,1663 737,1663 737,1612 744,1612 744,1658 763,1658 "/>
  <polygon id="5" class="fil4" points="794,1617 781,1617 781,1663 774,1663 774,1617 761,1617 761,1612 794,1612 "/>
  <path id="6" class="fil4" d="M834 1663l-7 0 -4 -13 -18 0 -4 13 -7 0 16 -51 9 0 15 51zm-12 -18l-4 -15 -4 -13c-1,5 -2,9 -3,12l-5 16 16 0z"/>
  <path id="7" class="fil4" d="M555 1663c-2,0 -4,0 -5,0 -2,0 -3,-1 -5,-1 -1,-1 -2,-2 -3,-2 0,-1 -1,-2 -2,-3 0,-2 -1,-3 -1,-4 0,-1 0,-2 -1,-5 0,-2 0,-3 0,-5 0,-1 0,-4 0,-7 0,-1 0,-3 0,-4 0,-2 0,-3 0,-5 1,-1 1,-3 1,-4 0,-1 0,-2 1,-3 0,-1 0,-2 1,-2 0,-1 1,-2 1,-3 1,0 2,-1 3,-1 0,-1 1,-1 2,-1 1,-1 3,-1 4,-1 1,0 3,0 4,0 2,0 4,0 6,0 1,0 3,1 4,1 1,1 2,2 3,3 1,1 2,2 2,3 1,1 1,2 1,4 1,2 1,4 1,5 0,2 0,4 0,7 0,7 0,12 0,14 -1,5 -2,8 -4,10 -2,3 -6,4 -11,4 -1,0 -1,0 -2,0zm0 -46c-3,0 -6,0 -7,1 -2,1 -3,3 -3,5 0,1 0,3 0,4 0,2 0,4 0,6 -1,2 -1,4 -1,5 0,6 1,11 1,15 0,1 1,3 2,4 2,1 5,1 8,1 4,0 6,0 8,-1 2,-1 2,-3 3,-4 0,-4 0,-9 0,-15 0,-1 0,-4 0,-7 0,-4 0,-6 -1,-8 0,-2 -1,-4 -2,-5 -2,-1 -4,-1 -8,-1z"/>
  <path id="8" class="fil4" d="M613 1647c0,2 0,4 0,6 0,2 -1,3 -1,4 -1,2 -2,3 -2,3 -1,1 -2,2 -4,2 -1,1 -2,1 -4,1 -2,0 -4,0 -6,0 -1,0 -2,0 -3,0 -1,0 -3,0 -4,0 -1,0 -2,-1 -2,-1 -1,0 -2,-1 -3,-1 0,-1 -1,-1 -1,-2 -1,-1 -1,-2 -1,-3 -1,-1 -1,-2 -1,-3 0,0 0,-1 0,-1 0,-1 0,-1 0,-1l5 -1c1,1 1,2 1,3 0,1 0,2 0,2 1,1 1,1 1,2 1,0 1,0 2,1 1,0 2,0 3,0 1,0 2,0 3,0 2,0 4,0 5,0 2,0 3,-1 3,-1 1,-1 2,-1 2,-2 1,-1 1,-2 1,-2 0,-1 0,-2 0,-3 0,-1 0,-1 0,-3 0,-1 0,-1 0,-2 0,-1 0,-2 0,-3 0,0 0,-1 0,-2 0,-1 0,-1 0,-1 -1,-1 -1,-1 -1,-2 0,0 -1,0 -1,-1 -1,0 -1,0 -2,0 -1,0 -2,0 -3,0 -1,0 -2,0 -3,0 -1,0 -2,0 -2,0 -1,0 -2,0 -2,0 -1,0 -2,0 -2,0 -1,1 -1,1 -2,1 0,1 0,1 -1,2 0,0 0,1 0,2l-6 -1 0 -28 28 0 0 6 -22 0 -1 19c1,-1 1,-2 1,-2 1,-1 1,-1 2,-2 0,0 1,-1 2,-1 0,-1 1,-1 2,-1 2,0 3,0 4,0 3,0 4,0 6,0 1,0 3,1 4,1 1,1 2,2 3,2 0,1 1,2 1,4 1,1 1,2 1,4 0,1 0,3 0,5z"/>
  <polygon id="9" class="fil4" points="621,1645 621,1640 641,1640 641,1645 "/>
  <polygon id="10" class="fil4" points="840,1645 840,1640 860,1640 860,1645 "/>
  <path id="11" class="fil4" d="M886 1663c-2,0 -4,0 -6,0 -1,0 -3,-1 -4,-1 -1,-1 -2,-2 -3,-2 -1,-1 -2,-2 -2,-3 -1,-2 -1,-3 -1,-4 -1,-1 -1,-2 -1,-5 0,-2 0,-3 0,-5 0,-1 0,-4 0,-7 0,-1 0,-3 0,-4 0,-2 0,-3 0,-5 0,-1 0,-3 0,-4 1,-1 1,-2 1,-3 1,-1 1,-2 1,-2 1,-1 1,-2 2,-3 1,0 1,-1 2,-1 1,-1 2,-1 3,-1 1,-1 2,-1 3,-1 2,0 3,0 5,0 2,0 4,0 5,0 2,0 3,1 5,1 1,1 2,2 3,3 1,1 1,2 2,3 0,1 1,2 1,4 0,2 0,4 1,5 0,2 0,4 0,7 0,7 0,12 -1,14 0,5 -1,8 -3,10 -3,3 -6,4 -12,4 0,0 -1,0 -1,0zm0 -46c-4,0 -6,0 -8,1 -2,1 -3,3 -3,5 0,1 0,3 0,4 0,2 0,4 0,6 0,2 0,4 0,5 0,6 0,11 0,15 0,1 1,3 3,4 2,1 4,1 8,1 3,0 6,0 7,-1 2,-1 3,-3 3,-4 0,-4 0,-9 0,-15 0,-1 0,-4 0,-7 0,-4 0,-6 0,-8 0,-2 -1,-4 -3,-5 -1,-1 -4,-1 -7,-1z"/>
  <path id="12" class="fil4" d="M944 1647c0,2 0,4 -1,6 0,2 0,3 -1,4 0,2 -1,3 -2,3 -1,1 -2,2 -3,2 -1,1 -3,1 -4,1 -2,0 -4,0 -6,0 -2,0 -3,0 -4,0 -1,0 -2,0 -3,0 -1,0 -2,-1 -3,-1 -1,0 -1,-1 -2,-1 -1,-1 -1,-1 -2,-2 0,-1 -1,-2 -1,-3 0,-1 0,-2 0,-3 0,0 0,-1 0,-1 0,-1 0,-1 0,-1l5 -1c0,1 0,2 0,3 0,1 1,2 1,2 0,1 1,1 1,2 0,0 1,0 2,1 0,0 1,0 2,0 1,0 2,0 4,0 2,0 3,0 5,0 1,0 2,-1 3,-1 1,-1 1,-1 2,-2 0,-1 1,-2 1,-2 0,-1 0,-2 0,-3 0,-1 0,-1 0,-3 0,-1 0,-1 0,-2 0,-1 0,-2 0,-3 0,0 0,-1 0,-2 -1,-1 -1,-1 -1,-1 0,-1 0,-1 -1,-2 0,0 0,0 -1,-1 0,0 -1,0 -2,0 0,0 -1,0 -2,0 -1,0 -2,0 -3,0 -1,0 -2,0 -3,0 0,0 -1,0 -2,0 -1,0 -1,0 -2,0 0,1 -1,1 -1,1 0,1 -1,1 -1,2 0,0 -1,1 -1,2l-6 -1 0 -28 29 0 0 6 -22 0 -1 19c0,-1 1,-2 1,-2 0,-1 1,-1 1,-2 1,0 1,-1 2,-1 1,-1 2,-1 3,-1 1,0 2,0 4,0 2,0 4,0 5,0 2,0 3,1 4,1 2,1 2,2 3,2 1,1 1,2 2,4 0,1 0,2 1,4 0,1 0,3 0,5z"/>
 </g>
</svg>
