<?xml version="1.0" encoding="UTF-8"?>
<!DOCTYPE svg PUBLIC "-//W3C//DTD SVG 1.1//EN" "http://www.w3.org/Graphics/SVG/1.1/DTD/svg11.dtd">
<svg xmlns="http://www.w3.org/2000/svg" xml:space="preserve" width="3336px" height="2568px" version="1.1" style="shape-rendering:geometricPrecision; text-rendering:geometricPrecision; image-rendering:optimizeQuality; fill-rule:evenodd; clip-rule:evenodd"
viewBox="0 0 3336 2568"
 xmlns:xlink="http://www.w3.org/1999/xlink">
 <!-- designed by Eugene "MegaZet" Shabrukov -->
 <defs>
  <style type="text/css">
    .fil0 {fill:#009900}
    .fil1 {fill:#FFFFFF;fill-opacity:0.400000}
    .fil2 {fill:#FFFFFF}
    .fil3 {fill:#131313}
    .fil4 {fill:#009900;fill-opacity:0.750000}
    .fil5 {fill:#009900;fill-opacity:0.500000}
    .fil6 {fill:#009900;fill-opacity:0.250000}
  </style>
 </defs>
 <polygon class="fil0" points="1668,2308 781,1796 781,772 1668,260 2555,772 2555,1796 "/>
 <polygon class="fil1" points="1668,357 1095,688 1095,688 1771,1225 1842,2110 2470,1747 2470,821 "/>
 <path class="fil2" d="M2191 982l-1046 0 523 906 523 -906zm-477 640l0 -311 270 -156 -270 467zm223 -547l-269 155 -269 -155 538 0zm-585 80l270 156 0 311 -270 -467z"/>
 <path class="fil2" d="M1668 454l-719 415 0 830 719 415 719 -415 0 -830 -719 -415zm383 997l-47 81 244 140 -580 335 -580 -335 244 -140 -47 -81 -243 141 0 -670 580 -334 0 281 92 0 0 -281 580 334 0 670 -243 -141z"/>
 <path class="fil3" d="M1668 780c-4,0 -7,-4 -7,-8 0,-4 3,-7 7,-7 5,0 8,3 8,7 0,4 -3,8 -8,8zm-46 220l5 -2c0,-4 -1,-7 -3,-9 -1,-1 -3,-1 -4,-2 -2,0 -3,1 -5,1 -1,1 -3,2 -4,3 -1,1 -3,3 -4,5 -1,3 -3,7 -3,11l5 -2 -4 11 0 12c0,6 0,13 0,20 0,7 0,13 0,20l0 19c7,-2 15,-3 22,-4l0 -17c0,-7 0,-15 0,-22 0,-7 0,-15 0,-23l0 -12 -5 -9zm87 -2l6 2 -6 9 0 12c0,8 0,16 0,23 0,7 0,15 0,22l0 17c8,1 16,2 22,4l1 -19c0,-7 0,-13 0,-20 0,-7 0,-14 0,-20l0 -12 -4 -11 4 2c0,-4 -1,-8 -3,-11 -1,-2 -2,-4 -3,-5 -1,-1 -3,-2 -4,-3 -2,0 -4,-1 -5,-1 -2,1 -3,1 -4,2 -2,2 -4,5 -4,9zm-33 -7l6 0c0,-8 -6,-14 -14,-14 -7,0 -13,6 -13,14l6 0 -6 10 0 80c4,0 9,0 13,0 5,0 9,0 14,0l0 -80 -6 -10zm-8 -211l23 92 0 0c32,7 57,28 64,55 3,3 4,6 4,10 0,3 -1,5 -3,8l0 32c2,3 3,5 3,8 0,3 -1,6 -3,8l0 100 0 0c21,8 35,18 35,29 0,4 -2,8 -5,11l0 34 -1 0 121 28 13 13 -15 9 0 243c217,47 434,159 651,336l-887 512 -887 -512c218,-177 435,-289 652,-336l0 -243 -15 -9 12 -13 122 -28 -1 0 0 -34c-3,-3 -5,-7 -5,-11 0,-11 13,-21 35,-29l0 0 0 -100c-2,-2 -4,-5 -4,-8 0,-3 2,-5 4,-8l0 -32c-2,-3 -4,-5 -4,-8 0,-4 2,-7 5,-10 6,-27 31,-48 64,-55l-1 0 23 -92z"/>
 <path class="fil0" d="M1752 1537c-30,-9 -62,-19 -95,-24l-1 -1 0 -227 144 118 -24 69 -15 -10 8 -42 -71 -53 0 123c17,6 38,16 61,30l1 0 -7 18 -1 -1z"/>
 <path class="fil0" d="M1902 1616c-29,-22 -91,-63 -91,-63l-2 -1 55 -88 129 107 -2 2c-1,0 -43,24 -87,43l-1 0 -1 0zm-56 -74c8,5 43,32 60,45 22,-10 41,-20 48,-23l-78 -64 -30 42z"/>
 <path class="fil0" d="M1806 1757l2 0c26,-13 39,-22 58,-38l0 -1 89 36 -85 146 -64 -143zm76 85l41 -70 -43 -20c-8,10 -18,18 -30,25l32 65z"/>
 <path class="fil0" d="M1668 1796l2 0c34,-3 60,-8 86,-17l2 -1 11 40 -1 1c-22,13 -48,15 -54,16l0 329 82 -131 -28 -129 21 -11 40 152 -161 263 0 -512z"/>
 <path class="fil0" d="M1461 1692c-30,-7 -65,-31 -65,-31l-4 -3 5 0c0,0 26,-1 33,-2 11,-5 20,-11 31,-16 10,-6 21,-13 37,-21 6,-3 12,-7 18,-10 34,-18 67,-36 126,-36 4,0 8,0 13,0 72,3 97,16 132,34 3,2 6,3 10,5 25,13 52,28 76,43 1,0 4,0 8,0 7,0 15,0 16,0l3 0 -2 3c-1,0 -12,15 -36,25l-1 1 -1 -1c-10,-3 -19,-7 -31,-13 -13,-6 -30,-14 -55,-24 -47,-20 -88,-23 -121,-23 -3,0 -5,0 -8,0 -27,0 -67,2 -108,23 -20,10 -34,20 -47,29 -10,6 -19,12 -28,17l-1 0 0 0z"/>
 <path class="fil0" d="M1661 1742c-81,-1 -137,-37 -137,-38l-2 -1 1 -1c1,0 28,-20 51,-33l1 -1 1 1c0,1 34,36 78,36 1,0 2,0 3,0 47,-2 80,-37 80,-37l1 -1 63 28 -2 2c-1,0 -60,45 -137,45l-1 0z"/>
 <polygon class="fil0" points="1022,1833 1012,1833 976,1773 976,1833 966,1833 966,1758 977,1758 1013,1818 1013,1758 1022,1758 "/>
 <polygon class="fil0" points="1050,1833 1039,1833 1039,1758 1050,1758 "/>
 <polygon class="fil0" points="1109,1833 1064,1833 1063,1824 1092,1776 1099,1765 1066,1765 1066,1758 1108,1758 1109,1767 1080,1815 1074,1826 1109,1826 "/>
 <polygon class="fil0" points="1177,1833 1167,1833 1167,1798 1133,1798 1133,1833 1123,1833 1123,1758 1133,1758 1133,1790 1167,1790 1167,1758 1177,1758 "/>
 <polygon class="fil0" points="1250,1833 1239,1833 1203,1773 1203,1833 1194,1833 1194,1758 1204,1758 1241,1818 1241,1758 1250,1758 "/>
 <polygon class="fil0" points="1313,1758 1290,1807 1290,1833 1280,1833 1280,1807 1258,1758 1269,1758 1286,1796 1302,1758 "/>
 <polygon class="fil0" points="1383,1765 1363,1765 1363,1833 1353,1833 1353,1765 1334,1765 1334,1758 1383,1758 "/>
 <path class="fil0" d="M1443 1833l-11 0 -5 -19 -28 0 -6 19 -10 0 23 -75 14 0 23 75zm-19 -26l-6 -23 -5 -19c-2,7 -4,13 -5,18l-7 24 23 0z"/>
 <path class="fil0" d="M1507 1795l0 33c-5,4 -15,6 -29,6 -3,0 -6,0 -8,0 -2,0 -4,0 -6,-1 -2,0 -3,-1 -5,-2 -1,-1 -2,-2 -3,-2 -1,-1 -2,-3 -2,-4 -1,-2 -2,-4 -2,-5 0,-2 -1,-4 -1,-7 0,-3 0,-5 0,-8 0,-2 0,-6 0,-10 0,-3 0,-6 0,-8 0,-3 0,-5 0,-7 0,-3 1,-5 1,-7 0,-1 1,-3 1,-5 1,-1 1,-3 2,-4 1,-1 2,-2 3,-3 1,-1 2,-1 4,-2 1,-1 3,-1 5,-2 1,0 3,0 6,0 2,-1 4,-1 7,-1 0,0 0,0 1,0 2,0 4,0 5,0 1,0 3,1 5,1 2,0 4,0 5,1 1,0 2,1 4,2 1,1 2,2 3,3 1,1 1,3 2,5 0,2 1,4 1,7 0,1 0,1 0,3l-10 1 0 -10c0,-2 -1,-3 -4,-4 -2,-1 -7,-1 -14,-1 -4,0 -8,0 -10,1 -2,1 -4,1 -5,3 -1,1 -1,2 -1,5 -1,7 -1,14 -1,21 0,7 0,14 1,21 0,4 0,6 0,7 1,2 3,3 5,4 2,0 6,1 11,1 12,0 18,-1 19,-3 0,-3 0,-10 0,-21l-12 0 -1 -8 23 0z"/>
 <polygon class="fil0" points="1533,1833 1522,1833 1522,1758 1533,1758 "/>
 <polygon class="fil0" points="1588,1833 1550,1833 1550,1758 1560,1758 1560,1825 1589,1825 "/>
 <polygon class="fil0" points="2034,1821 2006,1821 2006,1771 2034,1771 2035,1776 2012,1776 2012,1792 2031,1792 2031,1798 2012,1798 2012,1816 2035,1816 "/>
 <polygon class="fil0" points="2081,1821 2073,1821 2049,1781 2049,1821 2043,1821 2043,1771 2050,1771 2075,1811 2075,1771 2081,1771 "/>
 <polygon class="fil0" points="2117,1821 2092,1821 2092,1771 2099,1771 2099,1816 2118,1816 "/>
 <polygon class="fil0" points="2133,1821 2126,1821 2126,1771 2133,1771 "/>
 <path class="fil0" d="M2180 1796l0 22c-3,3 -9,4 -19,4 -2,0 -4,0 -5,0 -2,0 -3,-1 -4,-1 -1,0 -2,0 -3,-1 -1,-1 -2,-1 -2,-2 -1,0 -2,-1 -2,-3 0,-1 -1,-2 -1,-3 0,-1 0,-2 -1,-4 0,-2 0,-4 0,-6 0,-1 0,-3 0,-6 0,-2 0,-4 0,-6 0,-1 0,-3 0,-5 0,-1 1,-3 1,-4 0,-1 0,-2 1,-3 0,-1 1,-2 1,-3 1,0 1,-1 2,-2 1,0 1,-1 2,-1 1,-1 2,-1 4,-1 1,-1 2,-1 4,-1 1,0 3,0 5,0 0,0 0,0 0,0 2,0 3,0 4,0 0,0 2,0 3,0 1,0 2,1 3,1 1,0 2,1 3,1 1,1 1,2 2,2 0,1 1,2 1,4 0,1 1,3 1,4 0,1 0,1 0,2l-6 1 -1 -6c0,-2 -1,-3 -2,-3 -2,-1 -5,-1 -9,-1 -3,0 -6,0 -7,1 -2,0 -3,1 -4,1 0,1 -1,2 -1,4 0,4 0,9 0,14 0,5 0,10 0,14 0,3 1,4 1,5 0,1 1,2 3,2 1,1 4,1 7,1 8,0 12,-1 13,-2 0,-2 0,-7 0,-14l-8 0 -1 -5 15 0z"/>
 <polygon class="fil0" points="2227,1821 2220,1821 2220,1798 2197,1798 2197,1821 2191,1821 2191,1771 2197,1771 2197,1793 2220,1793 2220,1771 2227,1771 "/>
 <polygon class="fil0" points="2266,1776 2252,1776 2252,1821 2246,1821 2246,1776 2233,1776 2233,1771 2266,1771 "/>
 <polygon class="fil0" points="2300,1821 2271,1821 2271,1771 2300,1771 2300,1776 2278,1776 2278,1792 2297,1792 2297,1798 2278,1798 2278,1816 2301,1816 "/>
 <polygon class="fil0" points="2346,1821 2339,1821 2315,1781 2315,1821 2309,1821 2309,1771 2316,1771 2340,1811 2340,1771 2346,1771 "/>
 <polygon class="fil0" points="2386,1821 2358,1821 2358,1771 2386,1771 2387,1776 2364,1776 2364,1792 2383,1792 2383,1798 2364,1798 2364,1816 2387,1816 "/>
 <path class="fil0" d="M2433 1792c0,3 0,5 0,7 0,2 0,4 0,6 -1,2 -1,4 -1,5 0,2 -1,3 -1,4 -1,1 -1,2 -2,3 0,0 -1,1 -2,2 -1,0 -2,1 -3,1 -1,0 -3,1 -5,1 -1,0 -3,0 -5,0 -2,0 -4,0 -6,0l-13 0 0 -50 18 0c3,0 5,0 7,0 2,0 4,1 5,1 2,1 3,2 4,3 1,1 2,2 2,4 1,1 1,3 2,5 0,2 0,5 0,8zm-7 0c0,-2 0,-4 0,-5 0,-1 0,-2 0,-3 0,-2 -1,-3 -1,-3 0,-1 0,-1 -1,-2 -1,-1 -1,-1 -2,-2 -1,0 -2,0 -3,0 -1,-1 -3,-1 -4,-1 -2,0 -3,0 -6,0l-7 0 0 40 8 0c2,0 4,0 5,0 1,0 2,0 3,0 2,0 3,-1 3,-1 1,0 2,-1 2,-1 1,-1 1,-1 2,-2 0,-1 0,-2 0,-3 1,-1 1,-2 1,-4 0,-1 0,-3 0,-5l0 -8z"/>
 <polygon class="fil0" points="1127,1923 1120,1923 1096,1883 1096,1923 1090,1923 1090,1872 1097,1872 1121,1913 1121,1872 1127,1872 "/>
 <path class="fil0" d="M1173 1886c0,4 0,8 -2,10 -2,2 -4,3 -7,4 5,0 7,3 8,8l3 15 -8 0c0,-1 0,-3 0,-5 -1,-2 -1,-3 -1,-5 0,-1 -1,-3 -1,-4 0,-2 -1,-3 -1,-4 -1,-1 -1,-2 -2,-2 -1,-1 -3,-1 -6,-1l-11 0 0 21 -7 0 0 -51 16 0c2,0 3,0 4,0 1,0 2,0 4,1 1,0 2,0 3,0 1,0 2,0 2,1 1,0 2,1 3,1 0,1 1,1 1,2 1,1 1,1 2,2 0,1 0,2 0,3 0,1 0,3 0,4zm-6 3l0 -5c0,-1 0,-1 0,-2 0,0 0,-1 -1,-1 0,-1 0,-1 0,-2 -1,0 -1,0 -1,-1 -1,0 -1,0 -2,0 -1,0 -2,0 -3,0 -1,-1 -2,-1 -3,-1l-12 0 0 20 12 0c2,0 3,-1 4,-1 2,0 3,0 3,-1 1,0 1,0 2,-1 0,-1 0,-1 1,-2 0,-1 0,-2 0,-3z"/>
 <path class="fil0" d="M1333 1893c0,3 0,6 0,8 0,2 0,4 -1,6 0,2 0,4 0,5 0,1 -1,2 -1,4 -1,1 -1,2 -2,2 0,1 -1,2 -2,2 -1,1 -2,1 -4,2 -1,0 -2,0 -4,0 -1,1 -3,1 -5,1 -2,0 -4,0 -6,0l-13 0 0 -51 18 0c3,0 5,0 7,1 2,0 4,0 5,1 2,1 3,1 4,2 1,1 2,3 2,4 1,2 1,4 1,6 1,2 1,4 1,7zm-7 0c0,-2 0,-3 0,-4 0,-1 0,-2 0,-4 0,-1 -1,-2 -1,-3 0,0 -1,-1 -1,-2 -1,0 -1,-1 -2,-1 -1,0 -2,-1 -3,-1 -1,0 -3,0 -4,0 -2,0 -4,-1 -6,-1l-7 0 0 41 8 0c2,0 4,0 5,0 1,-1 2,-1 3,-1 2,0 3,0 3,0 1,-1 1,-1 2,-2 1,0 1,-1 2,-2 0,0 0,-1 0,-2 1,-1 1,-3 1,-4 0,-2 0,-3 0,-5l0 -9z"/>
 <polygon class="fil0" points="1371,1923 1343,1923 1343,1872 1371,1872 1372,1877 1350,1877 1350,1894 1369,1894 1369,1899 1350,1899 1350,1918 1372,1918 "/>
 <polygon class="fil0" points="1406,1923 1381,1923 1381,1872 1388,1872 1388,1918 1407,1918 "/>
 <polygon class="fil0" points="1438,1877 1425,1877 1425,1923 1418,1923 1418,1877 1405,1877 1405,1872 1438,1872 "/>
 <path class="fil0" d="M1478 1923l-7 0 -4 -13 -18 0 -4 13 -7 0 16 -51 9 0 15 51zm-12 -18l-4 -15 -4 -13c-1,5 -2,9 -3,12l-5 16 16 0z"/>
 <path class="fil0" d="M1199 1923c-2,0 -4,0 -5,0 -2,0 -3,-1 -5,-1 -1,-1 -2,-2 -3,-2 0,-1 -1,-2 -2,-3 0,-2 -1,-3 -1,-4 0,-1 0,-2 -1,-5 0,-2 0,-3 0,-5 0,-1 0,-4 0,-7 0,-1 0,-3 0,-4 0,-2 0,-3 0,-5 1,-1 1,-3 1,-4 0,-1 0,-2 1,-3 0,-1 0,-2 1,-2 0,-1 1,-2 1,-3 1,0 2,-1 3,-1 0,-1 1,-1 2,-1 1,-1 3,-1 4,-1 1,0 3,0 4,0 2,0 4,0 6,0 1,0 3,1 4,1 1,1 2,2 3,3 1,1 2,2 2,3 1,1 1,2 1,4 1,2 1,4 1,5 0,2 0,4 0,7 0,7 0,12 0,14 -1,5 -2,8 -4,10 -2,3 -6,4 -11,4 -1,0 -1,0 -2,0zm0 -46c-3,0 -6,0 -7,1 -2,1 -3,3 -3,5 0,1 0,3 0,4 0,2 0,4 0,6 -1,2 -1,4 -1,5 0,6 1,11 1,15 0,1 1,3 2,4 2,1 5,1 8,1 4,0 6,0 8,-1 2,-1 2,-3 3,-4 0,-4 0,-9 0,-15 0,-1 0,-4 0,-7 0,-4 0,-6 -1,-8 0,-2 -1,-4 -2,-5 -2,-1 -4,-1 -8,-1z"/>
 <path class="fil0" d="M1257 1907c0,2 0,4 0,6 0,2 -1,3 -1,4 -1,2 -2,3 -2,3 -1,1 -2,2 -4,2 -1,1 -2,1 -4,1 -2,0 -4,0 -6,0 -1,0 -2,0 -3,0 -1,0 -3,0 -4,0 -1,0 -2,-1 -2,-1 -1,0 -2,-1 -3,-1 0,-1 -1,-1 -1,-2 -1,-1 -1,-2 -1,-3 -1,-1 -1,-2 -1,-3 0,0 0,-1 0,-1 0,-1 0,-1 0,-1l5 -1c1,1 1,2 1,3 0,1 0,2 0,2 1,1 1,1 1,2 1,0 1,0 2,1 1,0 2,0 3,0 1,0 2,0 3,0 2,0 4,0 5,0 2,0 3,-1 3,-1 1,-1 2,-1 2,-2 1,-1 1,-2 1,-2 0,-1 0,-2 0,-3 0,-1 0,-1 0,-3 0,-1 0,-1 0,-2 0,-1 0,-2 0,-3 0,0 0,-1 0,-2 0,-1 0,-1 0,-1 -1,-1 -1,-1 -1,-2 0,0 -1,0 -1,-1 -1,0 -1,0 -2,0 -1,0 -2,0 -3,0 -1,0 -2,0 -3,0 -1,0 -2,0 -2,0 -1,0 -2,0 -2,0 -1,0 -2,0 -2,0 -1,1 -1,1 -2,1 0,1 0,1 -1,2 0,0 0,1 0,2l-6 -1 0 -28 28 0 0 6 -22 0 -1 19c1,-1 1,-2 1,-2 1,-1 1,-1 2,-2 0,0 1,-1 2,-1 0,-1 1,-1 2,-1 2,0 3,0 4,0 3,0 4,0 6,0 1,0 3,1 4,1 1,1 2,2 3,2 0,1 1,2 1,4 1,1 1,2 1,4 0,1 0,3 0,5z"/>
 <polygon class="fil0" points="1265,1905 1265,1900 1285,1900 1285,1905 "/>
 <polygon class="fil0" points="1484,1905 1484,1900 1504,1900 1504,1905 "/>
 <path class="fil0" d="M1530 1923c-2,0 -4,0 -6,0 -1,0 -3,-1 -4,-1 -1,-1 -2,-2 -3,-2 -1,-1 -2,-2 -2,-3 -1,-2 -1,-3 -1,-4 -1,-1 -1,-2 -1,-5 0,-2 0,-3 0,-5 0,-1 0,-4 0,-7 0,-1 0,-3 0,-4 0,-2 0,-3 0,-5 0,-1 0,-3 0,-4 1,-1 1,-2 1,-3 1,-1 1,-2 1,-2 1,-1 1,-2 2,-3 1,0 1,-1 2,-1 1,-1 2,-1 3,-1 1,-1 2,-1 3,-1 2,0 3,0 5,0 2,0 4,0 5,0 2,0 3,1 5,1 1,1 2,2 3,3 1,1 1,2 2,3 0,1 1,2 1,4 0,2 0,4 1,5 0,2 0,4 0,7 0,7 0,12 -1,14 0,5 -1,8 -3,10 -3,3 -6,4 -12,4 0,0 -1,0 -1,0zm0 -46c-4,0 -6,0 -8,1 -2,1 -3,3 -3,5 0,1 0,3 0,4 0,2 0,4 0,6 0,2 0,4 0,5 0,6 0,11 0,15 0,1 1,3 3,4 2,1 4,1 8,1 3,0 6,0 7,-1 2,-1 3,-3 3,-4 0,-4 0,-9 0,-15 0,-1 0,-4 0,-7 0,-4 0,-6 0,-8 0,-2 -1,-4 -3,-5 -1,-1 -4,-1 -7,-1z"/>
 <path class="fil0" d="M1588 1907c0,2 0,4 -1,6 0,2 0,3 -1,4 0,2 -1,3 -2,3 -1,1 -2,2 -3,2 -1,1 -3,1 -4,1 -2,0 -4,0 -6,0 -2,0 -3,0 -4,0 -1,0 -2,0 -3,0 -1,0 -2,-1 -3,-1 -1,0 -1,-1 -2,-1 -1,-1 -1,-1 -2,-2 0,-1 -1,-2 -1,-3 0,-1 0,-2 0,-3 0,0 0,-1 0,-1 0,-1 0,-1 0,-1l5 -1c0,1 0,2 0,3 0,1 1,2 1,2 0,1 1,1 1,2 0,0 1,0 2,1 0,0 1,0 2,0 1,0 2,0 4,0 2,0 3,0 5,0 1,0 2,-1 3,-1 1,-1 1,-1 2,-2 0,-1 1,-2 1,-2 0,-1 0,-2 0,-3 0,-1 0,-1 0,-3 0,-1 0,-1 0,-2 0,-1 0,-2 0,-3 0,0 0,-1 0,-2 -1,-1 -1,-1 -1,-1 0,-1 0,-1 -1,-2 0,0 0,0 -1,-1 0,0 -1,0 -2,0 0,0 -1,0 -2,0 -1,0 -2,0 -3,0 -1,0 -2,0 -3,0 0,0 -1,0 -2,0 -1,0 -1,0 -2,0 0,1 -1,1 -1,1 0,1 -1,1 -1,2 0,0 -1,1 -1,2l-6 -1 0 -28 29 0 0 6 -22 0 -1 19c0,-1 1,-2 1,-2 0,-1 1,-1 1,-2 1,0 1,-1 2,-1 1,-1 2,-1 3,-1 1,0 2,0 4,0 2,0 4,0 5,0 2,0 3,1 4,1 2,1 2,2 3,2 1,1 1,2 2,4 0,1 0,2 1,4 0,1 0,3 0,5z"/>
 <polygon class="fil4" points="2432,401 2815,622 2815,1062 2639,1097 2639,723 2315,536 "/>
 <polygon class="fil5" points="2606,200 3076,471 3076,1013 2900,1047 2900,573 2489,336 "/>
 <polygon class="fil6" points="2780,0 3336,321 3336,963 3160,996 3160,423 2663,136 "/>
 <polygon class="fil4" points="904,2167 521,1946 521,1506 697,1471 697,1845 1021,2032 "/>
 <polygon class="fil5" points="730,2368 260,2097 260,1555 436,1521 436,1995 847,2232 "/>
 <polygon class="fil6" points="556,2568 0,2247 0,1605 176,1572 176,2145 673,2432 "/>
 <polygon class="fil4" points="904,401 521,622 521,1062 697,1097 697,723 1021,536 "/>
 <polygon class="fil5" points="730,200 260,471 260,1013 436,1047 436,573 847,336 "/>
 <polygon class="fil6" points="556,0 0,321 0,963 176,996 176,423 673,136 "/>
 <polygon class="fil4" points="2432,2167 2815,1946 2815,1506 2639,1471 2639,1845 2315,2032 "/>
 <polygon class="fil5" points="2606,2368 3076,2097 3076,1555 2900,1521 2900,1995 2489,2232 "/>
 <polygon class="fil6" points="2780,2568 3336,2247 3336,1605 3160,1572 3160,2145 2663,2432 "/>
</svg>